<svg xmlns="http://www.w3.org/2000/svg" version="1.1" xmlns:xlink="http://www.w3.org/1999/xlink" width="126" height="132"><svg clip-rule="evenodd" fill-rule="evenodd" stroke-linejoin="round" stroke-miterlimit="2" viewBox="0 0 126 132" xmlns="http://www.w3.org/2000/svg"><g fill-rule="nonzero"><path d="m0 17.128-16.377 1.721v16.377l-14.037 1.476v-16.377l-16.377 1.721v-14.037l16.377-1.722v-16.377l14.037-1.475v16.377l16.377-1.721zm8.812-63.889c-16.315 0-29.59 19.061-30.963 25.312-1.372 6.251-5.643 3.203-6.404-.609-.762-3.814-5.423-12.428-16.706-12.428-8.08 0-22.917 8.923-23.235 37.433-.38 34.309 38.354 50.051 43.74 60.942 6.051-17.981 52.015-46.457 53.237-82.135.448-13.107-4.727-28.515-19.669-28.515" fill="#f00" transform="translate(81.219 55.603)"></path><path d="m0-48.267-14.037 1.475v16.377l-16.377 1.722v14.037l16.377-1.721v16.377l14.037-1.476v-16.377l16.377-1.721v-14.037l-16.377 1.721z" fill="#f9f9f9" transform="translate(64.842 92.305)"></path><path d="m0-57.516c-1.222 35.678-47.186 64.154-53.236 82.135-5.387-10.891-44.121-26.633-43.741-60.942.318-28.51 15.155-37.433 23.235-37.433 11.284 0 15.944 8.614 16.706 12.428.761 3.812 5.032 6.86 6.404.609 1.373-6.251 14.649-25.312 30.963-25.312 14.942 0 20.117 15.408 19.669 28.515m-14.332-37.357c-13.418 0-29.287 9.91-38.892 26.379-2.592-5.948-11.826-12.429-22.803-12.429-8.845 0-33.673 11.055-33.673 46.735 0 46.048 46.588 55.506 56.006 69.817.647.985 2.732 1.728 3.527-.624 7.515-22.179 65.787-47.236 65.787-92.369 0-25.311-16.534-37.509-29.952-37.509" transform="translate(109.7 94.873)"></path></g></svg><style>@media (prefers-color-scheme: light) { :root { filter: none; } }
@media (prefers-color-scheme: dark) { :root { filter: none; } }
</style></svg>